<svg width="33" height="31" viewBox="0 0 33 31" fill="none" xmlns="http://www.w3.org/2000/svg">
<g clip-path="url(#clip0_7_2)">
<path d="M34.5601 9.6118L35.7219 37.3898L16.5687 37.9181C16.1972 38.5026 5.27824 43.0314 4.90122 42.4498L-7.76349 12.1094C-8.17431 11.4757 0.482434 -9.23438 0 -0.500002L31.7078 -2.78873C32.2254 -1.81999 38.3852 8.84411 38.5 8.8257L55.4262 6.78653C56.2397 6.65608 34.9636 8.97679 34.5601 9.6118Z" fill="#1E1E1E" fill-opacity="0.13"/>
<path d="M10.679 20.558C10.6677 20.694 10.594 20.847 10.458 21.017C10.322 21.1983 10.1803 21.34 10.033 21.442C9.88567 21.544 9.76667 21.6063 9.676 21.629C9.472 21.6857 9.37567 21.6233 9.387 21.442L10.288 10.953L6.089 18.348C5.851 18.6993 5.64133 18.9373 5.46 19.062C5.29 19.1867 5.16533 19.2433 5.086 19.232C5.018 19.2093 4.96133 19.1413 4.916 19.028L1.924 11.633L0.989 20.575C0.977667 20.711 0.904 20.864 0.768 21.034C0.632 21.2153 0.490333 21.3513 0.343 21.442C0.195667 21.544 0.0766667 21.6063 -0.014 21.629C-0.218 21.6743 -0.314333 21.6063 -0.303 21.425L0.972 9.185C0.983333 9.049 1.09667 8.90167 1.312 8.743C1.52733 8.58433 1.737 8.454 1.941 8.352L2.247 8.199L5.851 17.141L10.543 8.896C10.815 8.43133 11.1267 8.21033 11.478 8.233C11.5573 8.233 11.6423 8.26133 11.733 8.318L10.679 20.558ZM12.368 21.442L13.558 9.202C13.626 8.77133 13.8356 8.454 14.187 8.25C14.323 8.17067 14.476 8.12533 14.646 8.114C19.7913 7.808 22.296 9.91033 22.16 14.421C22.1033 16.121 21.6273 17.566 20.732 18.756C19.848 19.9347 18.726 20.7393 17.366 21.17C16.006 21.6007 14.391 21.7593 12.521 21.646C12.4076 21.646 12.3566 21.578 12.368 21.442ZM13.677 20.371C15.3316 20.4617 16.686 20.337 17.74 19.997C18.794 19.6457 19.5193 19.198 19.916 18.654C20.494 17.872 20.8113 16.767 20.868 15.339C20.9246 13.367 20.4486 11.888 19.44 10.902C18.4313 9.90467 16.8673 9.39467 14.748 9.372L13.677 20.371ZM24.6348 20.558C24.6235 20.694 24.5498 20.8527 24.4138 21.034C24.2778 21.2153 24.1361 21.3513 23.9888 21.442C23.8415 21.544 23.7225 21.6063 23.6318 21.629C23.4278 21.6857 23.3315 21.6233 23.3428 21.442L24.5328 9.202C24.9635 8.66933 25.2695 8.352 25.4508 8.25C25.6435 8.13667 25.7625 8.11967 25.8078 8.199L30.8398 18.399L31.6388 9.202C31.6501 9.07733 31.7238 8.92433 31.8598 8.743C31.9958 8.55033 32.1375 8.40867 32.2848 8.318C32.4321 8.216 32.5511 8.15367 32.6418 8.131C32.8458 8.07433 32.9421 8.13667 32.9308 8.318L31.8598 20.558C31.8485 20.694 31.7351 20.847 31.5198 21.017C31.3045 21.187 31.0948 21.3173 30.8908 21.408L30.5848 21.561L25.5358 11.31L24.6348 20.558Z" fill="white"/>
</g>
<defs>
<clipPath id="clip0_7_2">
<rect width="33" height="31" fill="white"/>
</clipPath>
</defs>
</svg>
