<svg width="37" height="41" viewBox="0 0 37 41" fill="none" xmlns="http://www.w3.org/2000/svg">
<g id="Group">
<g id="Group_2">
<path id="Vector" d="M17.8976 24.6533H25.8271C26.2403 23.8373 26.572 22.9692 26.8106 22.0577C26.8202 22.0209 26.8298 21.9842 26.8392 21.9476C28.5301 15.4358 22.4093 7.37576 22.4093 7.37576L22.3911 11.8381C21.1977 9.52794 13.5673 0 13.5673 0C13.5673 0 5.93694 9.52794 4.74361 11.8381L4.72528 7.37576C4.72528 7.37576 -1.3955 15.4358 0.295353 21.9476C0.304882 21.9842 0.314412 22.0209 0.324021 22.0577C1.46249 26.4086 4.72463 29.7725 8.83689 31.1823C8.25688 30.2985 7.91967 29.2423 7.91967 28.1077C7.91967 25.0005 13.5673 19.2027 13.5673 19.2027C13.5673 19.2027 16.2287 21.9349 17.8976 24.6533Z" fill="#0070FF" fill-opacity="0.79"/>
</g>
<g id="Group_3">
<path id="Vector_2" d="M36.1953 23.8526H13.7536C13.3113 23.8526 12.9528 24.2112 12.9528 24.6534V30.3815H2.68005C2.23778 30.3815 1.87927 30.7401 1.87927 31.1823C1.87927 31.6245 2.23778 31.9831 2.68005 31.9831H12.9528V40.1992C12.9528 40.6414 13.3113 41 13.7536 41H36.1953C36.6375 41 36.9961 40.6414 36.9961 40.1992V24.6534C36.9961 24.2112 36.6375 23.8526 36.1953 23.8526ZM35.3945 39.3985H14.5544V25.4541H35.3945V39.3985Z" fill="#0070FF"/>
<path id="Vector_3" d="M20.2983 37.0654C20.995 37.0654 21.6219 36.835 22.1111 36.399C22.2066 36.3138 22.2976 36.22 22.3813 36.1199C22.6654 35.781 22.6208 35.2759 22.2818 34.9919C21.9429 34.7078 21.4378 34.7524 21.1537 35.0914C21.1196 35.132 21.0833 35.1697 21.0455 35.2034C20.8515 35.3762 20.6002 35.4639 20.2983 35.4639C19.4538 35.4639 18.7668 34.7759 18.7668 33.9304C18.7668 33.0848 19.4538 32.3969 20.2983 32.3969C20.6051 32.3969 20.9008 32.4873 21.1537 32.6582C21.5199 32.9059 22.0179 32.8099 22.2656 32.4434C22.5134 32.077 22.4172 31.5792 22.0508 31.3314C21.5321 30.9808 20.9261 30.7954 20.2983 30.7954C18.5707 30.7954 17.1653 32.2017 17.1653 33.9304C17.1653 35.6591 18.5707 37.0654 20.2983 37.0654Z" fill="#0070FF"/>
<path id="Vector_4" d="M31.9829 37.0654C32.4251 37.0654 32.7837 36.7068 32.7837 36.2646V28.588C32.7837 28.1458 32.4251 27.7872 31.9829 27.7872C31.5407 27.7872 31.1821 28.1458 31.1821 28.588V36.2646C31.1821 36.7069 31.5406 37.0654 31.9829 37.0654Z" fill="#0070FF"/>
<path id="Vector_5" d="M26.6102 37.0654C27.1916 37.0654 27.7362 36.9045 28.2018 36.6249C28.3354 36.8809 28.6033 37.0557 28.9121 37.0557C29.3543 37.0557 29.7129 36.6971 29.7129 36.2549V31.7568C29.7129 31.3146 29.3543 30.956 28.9121 30.956C28.6309 30.956 28.3836 31.101 28.2408 31.3202C27.7666 31.026 27.2079 30.8559 26.6102 30.8559C24.8994 30.8559 23.5074 32.2487 23.5074 33.9606C23.5074 35.6725 24.8994 37.0654 26.6102 37.0654ZM26.6102 32.4575C27.4379 32.4575 28.1113 33.1318 28.1113 33.9606C28.1113 34.7894 27.4379 35.4638 26.6102 35.4638C25.7824 35.4638 25.109 34.7894 25.109 33.9606C25.109 33.1318 25.7824 32.4575 26.6102 32.4575Z" fill="#0070FF"/>
</g>
</g>
</svg>
