<svg width="39" height="53" viewBox="0 0 39 53" fill="none" xmlns="http://www.w3.org/2000/svg">
<g id="Group 27">
<path id="Vector" d="M17.5645 22.4524L16.8585 21.749L15.5329 20.4281C15.5328 20.4281 15.5328 20.4281 15.5328 20.4281C13.6046 18.507 10.4769 18.507 8.54875 20.428L17.5645 22.4524ZM17.5645 22.4524L18.2703 21.7489M17.5645 22.4524L18.2703 21.7489M18.2703 21.7489L19.5954 20.4281M18.2703 21.7489L19.5954 20.4281M19.5954 20.4281C19.5955 20.4281 19.5955 20.428 19.5956 20.428C21.5239 18.5071 24.6514 18.5071 26.5797 20.4281L19.5954 20.4281ZM8.54871 27.3769C6.6226 25.4576 6.6226 22.3474 8.5487 20.4281L8.54871 27.3769Z" fill="white" stroke="#0070FF" stroke-width="2"/>
<path id="Vector_2" d="M20.7892 5.62051C20.7892 5.05417 20.3302 4.59506 19.7636 4.59506H15.3651C14.7989 4.59506 14.3395 5.05417 14.3395 5.62051C14.3395 6.1869 14.7989 6.646 15.3651 6.646H19.7636C20.3302 6.646 20.7892 6.1869 20.7892 5.62051Z" fill="#0070FF"/>
<path id="Vector_3" d="M14.3395 46.8835C14.3395 47.4501 14.7989 47.9091 15.3651 47.9091H19.7636C20.3302 47.9091 20.7892 47.4501 20.7892 46.8835C20.7892 46.3174 20.3302 45.8579 19.7636 45.8579H15.3651C14.7989 45.8579 14.3395 46.3174 14.3395 46.8835Z" fill="#0070FF"/>
<path id="Vector_4" d="M29.4031 26.4944H21.0361C20.6984 26.4944 20.3816 26.6611 20.1904 26.9403L18.8822 28.8484L17.5665 24.5509C17.4479 24.1641 17.1132 23.8832 16.712 23.8334C16.3117 23.7839 15.9174 23.9747 15.7083 24.3208L13.4147 28.1168H6.85436C6.28811 28.1168 5.82892 28.5762 5.82892 29.1424C5.82892 29.709 6.28811 30.168 6.85436 30.168H13.9932C14.3524 30.168 14.6853 29.9798 14.8713 29.6727L16.2771 27.3454L17.5442 31.4836C17.6593 31.8599 17.98 32.1373 18.3694 32.1968C18.421 32.2051 18.4731 32.2091 18.5247 32.2091C18.8594 32.2091 19.1771 32.0445 19.37 31.7632L21.5769 28.5456H29.4031C29.9693 28.5456 30.4287 28.0866 30.4287 27.52C30.4287 26.9538 29.9693 26.4944 29.4031 26.4944Z" fill="#0070FF"/>
<path id="Vector_5" d="M35.526 22.7784H34.7817C33.901 18.4359 31.4027 14.6708 27.9426 12.1371L25.8219 0.836389C25.7309 0.351426 25.3074 0 24.8143 0H10.315C9.82154 0 9.39813 0.351426 9.30717 0.836389L7.18649 12.1373C2.83163 15.3261 0 20.4656 0 26.252C0 32.0384 2.83172 37.1781 7.18649 40.3669L9.30717 51.6675C9.39813 52.1527 9.82162 52.504 10.315 52.504H24.8143C25.3078 52.504 25.7309 52.1527 25.8219 51.6675L27.9426 40.3669C31.4027 37.8331 33.901 34.0681 34.7817 29.7256H35.5264C37.4415 29.7256 39 28.1671 39 26.252C39 24.3365 37.4415 22.7784 35.526 22.7784ZM11.1658 2.05094H23.9633L25.5826 10.6795C23.1775 9.44456 20.4512 8.74695 17.5644 8.74695C14.6779 8.74695 11.9518 9.44456 9.54672 10.6795L11.1658 2.05094ZM23.9633 50.4529H11.1658L9.54659 41.8247C11.9516 43.0594 14.6779 43.7573 17.5644 43.7573C20.4512 43.7573 23.177 43.0594 25.5822 41.8247L23.9633 50.4529ZM17.5644 41.7061C9.0103 41.7061 2.05094 34.7734 2.05094 26.252C2.05094 17.7305 9.0103 10.7978 17.5644 10.7978C26.119 10.7978 33.078 17.7306 33.078 26.252C33.078 34.7734 26.119 41.7061 17.5644 41.7061ZM35.526 27.6744H35.0714C35.1094 27.2054 35.1291 26.7311 35.1291 26.252C35.1291 25.7729 35.1094 25.2986 35.0714 24.8296H35.526C36.3105 24.8296 36.9488 25.4675 36.9488 26.252C36.9488 27.0365 36.3105 27.6744 35.526 27.6744Z" fill="#0070FF"/>
</g>
</svg>
