<svg width="38" height="32" viewBox="0 0 38 32" fill="none" xmlns="http://www.w3.org/2000/svg">
<g id="Group">
<g id="Group_2">
<path id="Vector" d="M6.26636 18.9013H31.04V31.2645H6.26636V18.9013Z" fill="#308AFF" fill-opacity="0.24"/>
</g>
<g id="Group_3">
<path id="Vector_2" d="M15.5581 14.792C15.13 14.792 14.7628 14.4732 14.7038 14.0509C14.6983 14.0107 14.6954 13.9697 14.6954 13.9293C14.6954 13.5231 14.366 13.1938 13.9599 13.1938C13.5538 13.1938 13.2244 13.5231 13.2244 13.9293C13.2244 14.0373 13.232 14.1464 13.2469 14.2539C13.4068 15.3993 14.4004 16.2629 15.5581 16.2629C16.8449 16.2629 17.8918 15.2161 17.8918 13.9293C17.8918 13.3115 17.6504 12.7491 17.2571 12.3312C17.6504 11.9133 17.8918 11.3508 17.8918 10.733C17.8918 9.44623 16.8449 8.39941 15.5581 8.39941C14.4455 8.39941 13.4824 9.19094 13.2683 10.2815C13.19 10.6801 13.4496 11.0667 13.8483 11.145C14.2468 11.2234 14.6334 10.9635 14.7117 10.5651C14.7907 10.1625 15.1467 9.87039 15.5581 9.87039C16.0338 9.87039 16.4208 10.2574 16.4208 10.733C16.4208 11.2087 16.0338 11.5957 15.5581 11.5957C15.152 11.5957 14.8226 11.925 14.8226 12.3312C14.8226 12.7374 15.152 13.0667 15.5581 13.0667C16.0338 13.0667 16.4208 13.4537 16.4208 13.9293C16.4208 14.405 16.0338 14.792 15.5581 14.792Z" fill="#0070FF"/>
<path id="Vector_3" d="M21.8909 16.2563C23.2924 16.2563 24.4325 15.1162 24.4325 13.7147V10.8263C24.4325 9.42485 23.2924 8.2847 21.8909 8.2847C20.4895 8.2847 19.3493 9.42485 19.3493 10.8263V13.7147C19.3493 15.1162 20.4895 16.2563 21.8909 16.2563ZM20.8203 10.8263C20.8203 10.236 21.3006 9.75567 21.8909 9.75567C22.4813 9.75567 22.9616 10.2359 22.9616 10.8263V13.7147C22.9616 14.305 22.4813 14.7854 21.8909 14.7854C21.3006 14.7854 20.8203 14.3051 20.8203 13.7147V10.8263Z" fill="#0070FF"/>
<path id="Vector_4" d="M33.5095 0.808962H32.7542V0.735487C32.7542 0.329277 32.4248 0 32.0187 0C31.6125 0 31.2832 0.329277 31.2832 0.735487V0.808962H28.2848V0.735487C28.2848 0.329277 27.9555 0 27.5493 0C27.1432 0 26.8139 0.329277 26.8139 0.735487V0.808962H10.843V0.735487C10.843 0.329277 10.5136 0 10.1075 0C9.70136 0 9.37201 0.329277 9.37201 0.735487V0.808962H6.37365V0.735487C6.37365 0.329277 6.0443 0 5.63817 0C5.23203 0 4.90268 0.329277 4.90268 0.735487V0.808962H4.14741C1.86049 0.808962 0 2.66945 0 4.9563V27.8526C0 30.1395 1.86049 32 4.14741 32H33.5095C35.7964 32 37.6569 30.1395 37.6569 27.8526V4.9563C37.6569 2.66945 35.7964 0.808962 33.5095 0.808962ZM4.14741 2.27994H4.90275V2.63216C4.90275 3.03837 5.23211 3.36765 5.63824 3.36765C6.04438 3.36765 6.37373 3.03837 6.37373 2.63216V2.27994H9.37209V2.63216C9.37209 3.03837 9.70144 3.36765 10.1076 3.36765C10.5137 3.36765 10.8431 3.03837 10.8431 2.63216V2.27994H26.814V2.63216C26.814 3.03837 27.1434 3.36765 27.5495 3.36765C27.9556 3.36765 28.285 3.03837 28.285 2.63216V2.27994H31.2833V2.63216C31.2833 3.03837 31.6127 3.36765 32.0188 3.36765C32.425 3.36765 32.7543 3.03837 32.7543 2.63216V2.27994H33.5097C34.9477 2.27994 36.1245 3.41994 36.1837 4.8437H1.47333C1.53253 3.41994 2.70939 2.27994 4.14741 2.27994ZM36.1859 27.8526C36.1859 29.3283 34.9853 30.529 33.5095 30.529H4.14741C2.67166 30.529 1.47097 29.3283 1.47097 27.8526V6.3146H36.1859V27.8526Z" fill="#0070FF"/>
<path id="Vector_5" d="M17.697 22.7027C17.6945 22.6959 17.6918 22.6893 17.6891 22.6826C17.5591 22.3665 17.2543 22.1624 16.9124 22.1624H16.9118C16.5697 22.1626 16.2649 22.3673 16.1352 22.6839C16.133 22.6896 16.1307 22.6951 16.1286 22.7008L14.4007 27.2377C14.2561 27.6172 14.4466 28.0421 14.8262 28.1867C15.2057 28.3312 15.6306 28.1408 15.7752 27.7612L16.0251 27.105H17.786L18.0329 27.7591C18.144 28.0537 18.4238 28.2351 18.7211 28.2351C18.8073 28.2351 18.8951 28.2198 18.9805 28.1875C19.3606 28.0441 19.5524 27.6197 19.409 27.2397L17.697 22.7027ZM16.5855 25.634L16.9097 24.7827L17.231 25.634H16.5855Z" fill="#0070FF"/>
<path id="Vector_6" d="M9.68866 28.0214C9.82649 28.1582 10.0127 28.2349 10.2068 28.2349H10.2096C10.2479 28.2348 11.1508 28.2312 11.5123 28.225C12.9544 28.1997 14.0013 26.9557 14.0013 25.2667C14.0013 23.4913 12.981 22.2985 11.4624 22.2985H10.1978C10.0025 22.2985 9.81517 22.3762 9.67719 22.5144C9.53921 22.6527 9.46191 22.8401 9.46228 23.0354V23.0382V23.0386V27.427C9.46228 27.4707 9.46611 27.5137 9.47346 27.5553C9.48685 27.7309 9.5629 27.8965 9.68866 28.0214ZM11.4625 23.7694C12.4534 23.7694 12.5304 24.9154 12.5304 25.2666C12.5304 25.998 12.2076 26.7416 11.4868 26.7541C11.3572 26.7564 11.1502 26.7583 10.9399 26.7598C10.9384 26.25 10.9366 25.6038 10.9366 25.2617C10.9366 24.974 10.9355 24.3011 10.9347 23.7693L11.4625 23.7694Z" fill="#0070FF"/>
<path id="Vector_7" d="M24.7338 25.3082C24.7662 25.3294 24.8003 25.348 24.8358 25.3637C24.8625 25.3757 25.501 25.6598 26.2195 25.925C26.471 26.0177 26.7531 26.1906 26.7205 26.3729C26.6924 26.5306 26.4676 26.7639 26.0745 26.7639C25.6616 26.7639 25.2659 26.5993 25.0158 26.3234C24.7431 26.0223 24.2781 25.9995 23.9769 26.2723C23.676 26.5451 23.6532 27.0102 23.926 27.3112C24.458 27.8982 25.2411 28.2349 26.0745 28.2349C27.122 28.2349 28.0027 27.5605 28.1686 26.6314C28.2946 25.9259 27.9825 25.0073 26.7286 24.5449C26.1921 24.347 25.6906 24.132 25.5078 24.0523C25.464 24.0083 25.4603 23.9536 25.4662 23.9124C25.4817 23.805 25.5741 23.7183 25.7198 23.6744C26.2891 23.5026 26.8339 23.934 26.8394 23.9385L26.9455 23.9911C27.263 24.1485 27.6477 24.0523 27.8538 23.7641C28.0961 23.4254 28.0025 22.9523 27.6497 22.731C26.9119 22.2681 26.1258 22.0158 25.2955 22.2658C24.5998 22.4755 24.1073 23.0262 24.0101 23.7033C23.9185 24.3425 24.1957 24.9574 24.7338 25.3082Z" fill="#0070FF"/>
<path id="Vector_8" d="M20.5171 25.3669L20.5119 27.4976C20.5109 27.9038 20.8394 28.2339 21.2456 28.2349H21.2475C21.6528 28.2349 21.9818 27.9068 21.9829 27.5012L21.9881 25.368L23.3273 23.3107C23.5489 22.9703 23.4526 22.5146 23.1122 22.293C22.7717 22.0714 22.3162 22.1678 22.0945 22.5082L21.2522 23.8021L20.3991 22.4957C20.177 22.1556 19.7214 22.0597 19.3812 22.2819C19.041 22.504 18.9453 22.9598 19.1674 23.2998L20.5171 25.3669Z" fill="#0070FF"/>
</g>
</g>
</svg>
