<svg width="42" height="41" viewBox="0 0 42 41" fill="none" xmlns="http://www.w3.org/2000/svg">
<g id="Group">
<g id="Group_2">
<path id="Vector" d="M25.53 8.14768C25.5155 8.18836 25.5015 8.22928 25.4884 8.27052C27.7901 8.72472 29.3418 10.8956 28.763 13.1417L28.1331 15.5861H41.0412C41.1099 15.312 41.1463 15.0263 41.1463 14.7326C41.1463 13.3661 40.3599 12.1716 39.1877 11.5243C39.5376 10.9701 39.7383 10.3236 39.7383 9.63321C39.7383 7.57753 37.9586 5.9111 35.7632 5.9111C34.7305 5.9111 33.7898 6.27994 33.0831 6.88445C32.2822 5.95138 31.0531 5.35416 29.6752 5.35416C28.9134 5.35416 28.1971 5.53673 27.5736 5.85761C27.5732 7.00232 26.6914 7.95373 25.53 8.14768Z" fill="#308AFF"/>
<g id="Group_3">
<path id="Vector_2" d="M16.4264 25.0625C16.6159 25.0625 16.8025 25.0746 16.9852 25.0979C17.3473 24.2883 17.1732 23.3183 16.4667 22.6645C15.5407 21.8077 14.0509 21.8185 13.1392 22.6886L12.8102 23.0026C12.6836 22.8113 12.5313 22.6308 12.3529 22.4658C11.141 21.3444 9.19115 21.3585 7.99791 22.4974C7.72124 22.7615 7.50953 23.0628 7.36262 23.3839C6.86195 23.1819 6.30946 23.0717 5.72948 23.0759C3.48957 23.0922 1.68775 24.808 1.70508 26.9085C1.71643 28.2865 2.4324 29.4571 3.60797 30.1158H7.89188H12.5277C12.3954 29.7385 12.3239 29.3226 12.3239 28.904C12.3239 26.7824 14.1606 25.0625 16.4264 25.0625Z" fill="#0070FF"/>
</g>
<g id="Group_4">
<path id="Vector_3" d="M26.3447 35.151H34.8361V40.1992H26.3447V35.151Z" fill="white"/>
</g>
</g>
<g id="Group_5">
<path id="Vector_4" d="M41.1463 14.7854H29.2178L29.5929 13.3299C29.9647 11.8871 29.6163 10.3905 28.6373 9.22356C28.275 8.79186 27.8457 8.42814 27.3684 8.14098C28.0197 7.56979 28.4275 6.75707 28.4275 5.85675C28.4275 4.66503 27.711 3.60039 26.6178 3.07396C26.5869 1.37398 25.1027 0 23.2828 0C21.4629 0 19.9786 1.37398 19.9479 3.07396C18.8545 3.60039 18.1381 4.66503 18.1381 5.85675C18.1381 6.75707 18.5458 7.56971 19.1972 8.14098C18.7199 8.42814 18.2906 8.79186 17.9284 9.22356C16.9493 10.3905 16.6009 11.8872 16.9727 13.3299L17.4552 15.2021C17.3886 15.3161 17.3508 15.447 17.3508 15.5862V24.3427C17.0512 24.2895 16.7423 24.2618 16.4265 24.2618C13.6937 24.2618 11.4704 26.3443 11.4704 28.904C11.4704 29.0407 11.4768 29.1781 11.4896 29.315H0.853659C0.382183 29.315 0 29.6736 0 30.1158V40.1992C0 40.6414 0.382183 41 0.853659 41H37.1075C39.8052 41 42 38.9442 42 36.4174V15.5862C42 15.1439 41.6178 14.7854 41.1463 14.7854ZM21.0656 4.37851C21.507 4.27193 21.7813 3.85888 21.6886 3.44024C21.666 3.3383 21.6547 3.23315 21.6547 3.12793C21.6547 2.28631 22.3851 1.60156 23.2828 1.60156C24.1805 1.60156 24.9109 2.28631 24.9109 3.12793C24.9109 3.23315 24.8994 3.3383 24.8769 3.44024C24.7843 3.85888 25.0585 4.27193 25.5 4.37851C26.2184 4.55196 26.7201 5.15983 26.7201 5.85675C26.7201 6.69838 25.9897 7.38312 25.092 7.38312C24.6377 7.38312 24.2161 7.212 23.9049 6.90121C23.7436 6.7401 23.5184 6.64881 23.2828 6.64881C23.0472 6.64881 22.822 6.74018 22.6606 6.90121C22.3494 7.212 21.9278 7.38312 21.4735 7.38312C20.5758 7.38312 19.8454 6.69838 19.8454 5.85675C19.8454 5.15983 20.3472 4.55196 21.0656 4.37851ZM19.2699 10.214C19.9255 9.43272 20.9102 8.98461 21.9715 8.98461H24.594C25.6553 8.98461 26.64 9.43272 27.2956 10.214C27.9489 10.9927 28.1813 11.9911 27.9333 12.9536L27.4613 14.7854H19.1043L18.6323 12.9536C18.3841 11.9911 18.6167 10.9926 19.2699 10.214ZM24.4721 29.3149H21.3633C21.376 29.178 21.3825 29.0407 21.3825 28.904C21.3825 28.2144 21.2212 27.5594 20.932 26.9706C21.2525 26.8353 21.6011 26.7653 21.9639 26.7653C23.3515 26.7653 24.4804 27.8217 24.4804 29.1203C24.4804 29.1851 24.4776 29.2502 24.4721 29.3149ZM13.1776 28.904C13.1776 27.2273 14.635 25.8632 16.4264 25.8632C18.2178 25.8632 19.6753 27.2273 19.6753 28.904C19.6753 29.0411 19.6656 29.179 19.6466 29.3149H13.2064C13.1873 29.179 13.1776 29.0411 13.1776 28.904ZM25.4911 30.9165V34.3502H1.70732V30.9165H25.4911ZM1.70732 39.3984V35.9518H25.4911V39.3984H1.70732ZM40.2927 36.4174C40.2927 38.0611 38.8638 39.3984 37.1075 39.3984H27.1984V30.1157C27.1984 29.6735 26.8162 29.3149 26.3448 29.3149H26.1826C26.186 29.25 26.1877 29.185 26.1877 29.1203C26.1877 26.9386 24.2929 25.1637 21.9639 25.1637C21.2582 25.1637 20.5646 25.3309 19.9501 25.6425C19.6818 25.3882 19.3825 25.1628 19.0579 24.9716V16.3869H40.2927V36.4174Z" fill="#0070FF"/>
<path id="Vector_5" d="M25.8301 20.3414V19.6143C25.8301 19.1721 25.4479 18.8135 24.9765 18.8135C24.505 18.8135 24.1228 19.1721 24.1228 19.6143V20.3414C24.1228 23.2091 26.6137 25.542 29.6753 25.542C32.737 25.542 35.2278 23.209 35.2278 20.3414V19.6143C35.2278 19.1721 34.8456 18.8135 34.3741 18.8135C33.9027 18.8135 33.5205 19.1721 33.5205 19.6143V20.3414C33.5205 22.3259 31.7955 23.9405 29.6753 23.9405C27.555 23.9405 25.8301 22.3259 25.8301 20.3414Z" fill="#0070FF"/>
</g>
</g>
</svg>
