<svg width="43" height="40" viewBox="0 0 43 40" fill="none" xmlns="http://www.w3.org/2000/svg">
<g id="Group 29">
<path id="Vector" d="M22.5022 3.81373C22.5457 3.60494 22.5681 3.38873 22.5681 3.16716C22.5681 1.41798 21.1524 0 19.4056 0C17.6589 0 16.2428 1.41798 16.2428 3.16716C16.2428 3.38873 16.2656 3.60494 16.3087 3.81373C14.9448 4.16539 13.9371 5.4054 13.9371 6.88107C13.9371 8.63025 15.3531 10.0482 17.0999 10.0482C18.0092 10.0482 18.8288 9.66396 19.4056 9.04884C19.9825 9.66396 20.8021 10.0482 21.7114 10.0482C23.4581 10.0482 24.8738 8.63018 24.8738 6.88107C24.8738 5.4053 23.8661 4.16539 22.5022 3.81373Z" fill="#1170FF"/>
<path id="Vector_2" d="M23.3278 22.242H15.4845C15.0898 22.242 14.7509 21.9611 14.6778 21.573L13.394 14.7651C13.1431 13.368 13.5196 11.9499 14.4252 10.8674C15.3292 9.78665 16.655 9.16687 18.0631 9.16687H20.7492C22.1572 9.16687 23.4829 9.78665 24.3869 10.8673C25.2927 11.9499 25.6689 13.368 25.4195 14.7581L25.2125 15.8568C25.1284 16.3023 24.6997 16.5951 24.2535 16.5111C23.808 16.427 23.5151 15.998 23.5989 15.5524L23.8048 14.4608C23.967 13.5579 23.7204 12.6295 23.1278 11.9209C22.5365 11.2142 21.6696 10.8088 20.7492 10.8088H18.0631C17.1426 10.8088 16.2757 11.2142 15.6845 11.9209C15.0917 12.6295 14.8453 13.5579 15.0087 14.4679L16.165 20.6H23.3278C23.781 20.6 24.1484 20.9677 24.1484 21.421C24.1484 21.8742 23.781 22.242 23.3278 22.242Z" fill="#0070FF"/>
<path id="Vector_3" d="M28.1317 21.4217H40.0267C40.9213 19.9128 40.7217 17.9317 39.4278 16.633C39.2026 16.4071 38.9567 16.2144 38.6965 16.0551L39.1182 15.6316C40.2873 14.4585 40.2873 12.5564 39.1182 11.3832C37.9494 10.21 36.0541 10.21 34.885 11.3832L34.4633 11.8066C34.3043 11.5453 34.1123 11.2987 33.8871 11.0728C32.3572 9.53731 29.8767 9.53731 28.3467 11.0728C27.9919 11.4288 27.7194 11.8361 27.5292 12.271C26.8946 11.9915 26.1927 11.8364 25.455 11.8364C22.6053 11.8364 20.295 14.1499 20.295 17.0036C20.295 18.8757 21.2894 20.5152 22.778 21.4217H28.1317Z" fill="#A5C9FE"/>
<path id="Vector_4" d="M41.2098 20.6007L10.847 20.6C11.4385 19.6823 11.7674 18.6011 11.7674 17.4883C11.7674 14.7679 9.86532 12.4845 7.32502 11.9059C8.44777 10.6674 10.0551 9.93445 11.7563 9.93445C13.1187 9.93445 14.402 10.3821 15.4675 11.2291C15.8225 11.5111 16.3388 11.4523 16.6211 11.0973C16.903 10.7425 16.8442 10.226 16.489 9.94387C15.1303 8.86365 13.4937 8.29269 11.7564 8.29269C9.15984 8.29269 6.73543 9.63095 5.33808 11.8101C2.53155 12.1676 0.35446 14.5779 0.35446 17.4887C0.35446 18.6014 0.683491 19.683 1.27539 20.6011H0.820931C0.367524 20.6011 0 20.9685 0 21.4217C0 21.8753 0.367524 22.2427 0.820931 22.2427H1.25714C1.30271 24.7712 1.82645 27.1558 2.81575 29.3358C3.80823 31.5228 5.24292 33.4516 7.07998 35.0688C10.6926 38.2487 15.6417 40 21.0154 40C26.389 40 31.3381 38.2487 34.9507 35.0688C36.7878 33.4516 38.2224 31.5228 39.2151 29.3358C40.2042 27.1558 40.7278 24.7712 40.7737 22.2427H41.2098C41.663 22.2427 42.0308 21.8753 42.0308 21.4217C42.0308 20.9685 41.663 20.6007 41.2098 20.6007ZM6.0608 13.4063C8.30206 13.4063 10.1256 15.2376 10.1256 17.4887C10.1256 18.7027 9.60659 19.8224 8.69242 20.6H3.42919C2.51512 19.8224 1.99604 18.7027 1.99604 17.4887C1.99615 15.2376 3.81955 13.4063 6.0608 13.4063ZM21.0154 38.3584C10.6497 38.3584 3.09 31.6026 2.89939 22.2427H39.1314C38.9408 31.6026 31.3812 38.3584 21.0154 38.3584Z" fill="#0070FF"/>
</g>
</svg>
