<svg width="40" height="44" viewBox="0 0 40 44" fill="none" xmlns="http://www.w3.org/2000/svg">
<g id="Group">
<g id="Group_2">
<path id="Vector" d="M13.1489 12.4966C12.7879 12.205 12.2587 12.2612 11.9671 12.6223L9.81119 15.2911L8.76709 14.5547C8.38763 14.2871 7.86336 14.3779 7.59584 14.7571C7.32833 15.1365 7.41893 15.6607 7.79822 15.9283L9.48576 17.1185C9.63267 17.222 9.80177 17.2722 9.96961 17.2722C10.2155 17.2722 10.4585 17.1646 10.6239 16.9598L13.2746 13.6784C13.5663 13.3175 13.5101 12.7882 13.1489 12.4966Z" fill="#0070FF"/>
<path id="Vector_2" d="M22.5416 15.5913H15.8895C15.4253 15.5913 15.0491 15.9676 15.0491 16.4318C15.0491 16.8959 15.4253 17.2722 15.8895 17.2722H22.5416C23.0058 17.2722 23.382 16.8959 23.382 16.4318C23.382 15.9676 23.0058 15.5913 22.5416 15.5913Z" fill="#0070FF"/>
<path id="Vector_3" d="M13.1489 19.7709C12.7879 19.4792 12.2587 19.5355 11.9671 19.8966L9.81119 22.5654L8.76709 21.829C8.38763 21.5614 7.86336 21.6522 7.59584 22.0314C7.32833 22.4108 7.41893 22.9351 7.79822 23.2027L9.48576 24.3928C9.63267 24.4964 9.80177 24.5465 9.96961 24.5465C10.2155 24.5465 10.4585 24.439 10.6239 24.2341L13.2746 20.9528C13.5663 20.5918 13.5101 20.0626 13.1489 19.7709Z" fill="#0070FF"/>
<path id="Vector_4" d="M22.5416 22.8656H15.8895C15.4253 22.8656 15.0491 23.2419 15.0491 23.706C15.0491 24.1702 15.4253 24.5465 15.8895 24.5465H22.5416C23.0058 24.5465 23.382 24.1702 23.382 23.706C23.382 23.2419 23.0058 22.8656 22.5416 22.8656Z" fill="#0070FF"/>
<path id="Vector_5" d="M13.1489 27.0452C12.7879 26.7535 12.2587 26.8098 11.9671 27.1709L9.81119 29.8397L8.76709 29.1033C8.38763 28.8358 7.86336 28.9265 7.59584 29.3057C7.32833 29.6851 7.41893 30.2094 7.79822 30.477L9.48576 31.6671C9.63267 31.7707 9.80177 31.8208 9.96961 31.8208C10.2155 31.8208 10.4585 31.7133 10.6239 31.5084L13.2746 28.2271C13.5663 27.8661 13.5101 27.3369 13.1489 27.0452Z" fill="#0070FF"/>
<path id="Vector_6" d="M22.5416 30.1399H15.8895C15.4253 30.1399 15.0491 30.5162 15.0491 30.9803C15.0491 31.4445 15.4253 31.8208 15.8895 31.8208H22.5416C23.0058 31.8208 23.382 31.4445 23.382 30.9803C23.382 30.5162 23.0058 30.1399 22.5416 30.1399Z" fill="#0070FF"/>
<path id="Vector_7" d="M27.1022 3.43349H22.4428V2.95796C22.4428 2.49378 22.0665 2.11751 21.6023 2.11751H18.9737C18.2745 0.830364 16.9098 0 15.4122 0C13.9146 0 12.5498 0.830364 11.8506 2.11751H9.222C8.75782 2.11751 8.38155 2.49378 8.38155 2.95796V3.43349H3.7221C1.66972 3.43349 0 5.10321 0 7.15558V39.3089C0 41.3613 1.66972 43.031 3.7221 43.031H27.1023C27.5665 43.031 27.9428 42.6547 27.9428 42.1905C27.9428 41.7264 27.5665 41.3501 27.1023 41.3501H3.7221C2.59657 41.3501 1.6809 40.4344 1.6809 39.3089V7.15558C1.6809 6.03005 2.59657 5.11439 3.7221 5.11439H8.38155V7.13911H4.55675C4.09257 7.13911 3.7163 7.51538 3.7163 7.97956V38.4848C3.7163 38.949 4.09257 39.3253 4.55675 39.3253H23.3599C23.8241 39.3253 24.2004 38.949 24.2004 38.4848C24.2004 38.0207 23.8241 37.6444 23.3599 37.6444H5.3972V8.82001H25.427V29.9933C25.427 30.4575 25.8033 30.8337 26.2675 30.8337C26.7317 30.8337 27.1079 30.4575 27.1079 29.9933V7.97956C27.1079 7.51538 26.7317 7.13911 26.2675 7.13911H22.4427V5.11439H27.1021C28.2277 5.11439 29.1433 6.03005 29.1433 7.15558V30.308C29.1433 30.7722 29.5196 31.1485 29.9838 31.1485C30.448 31.1485 30.8242 30.7722 30.8242 30.308V7.15558C30.8243 5.10321 29.1546 3.43349 27.1022 3.43349ZM10.0624 7.13911V3.79841H12.3921C12.7464 3.79841 13.0627 3.57611 13.1828 3.24279C13.5193 2.30855 14.4152 1.6809 15.4122 1.6809C16.4091 1.6809 17.305 2.30855 17.6415 3.24279C17.7616 3.5762 18.0779 3.79841 18.4322 3.79841H20.7619V7.13911H10.0624Z" fill="#0070FF"/>
</g>
<g id="Group_3">
<path id="Vector_8" d="M28.4678 26.8028C26.9684 26.3319 25.3541 26.3786 23.8991 26.9812C21.9838 27.7744 19.9678 29.6481 19.9678 34.022C19.9678 42.3534 27.6573 44.3 29.9829 42.3144H29.9849C32.3105 44.2999 40 42.3533 40 34.022C40 29.6481 37.984 27.7743 36.0688 26.9812C34.6137 26.3786 32.9995 26.3319 31.5 26.8028C30.5215 27.177 29.4464 27.177 28.4678 26.8028Z" fill="#0070FF"/>
<path id="Vector_9" d="M36.3149 20.9802C36.2502 20.6415 35.9854 20.3766 35.6466 20.312C35.5069 20.2854 32.2028 19.68 30.4179 21.4648C29.3601 22.5226 29.1419 24.1139 29.1452 25.264C29.1441 25.281 29.1436 25.2981 29.1436 25.3153V28.3195C29.1436 28.7837 29.5198 29.16 29.984 29.16C30.4482 29.16 30.8245 28.7837 30.8245 28.3195V27.4642C30.9953 27.4748 31.1849 27.4818 31.3878 27.4818C32.5359 27.4818 34.112 27.259 35.162 26.2089C36.9469 24.4241 36.3415 21.12 36.3149 20.9802ZM33.9734 25.0204C33.2159 25.7779 31.7702 25.8517 30.8473 25.784C30.7853 24.9527 30.804 23.4559 31.6066 22.6534C32.3652 21.8947 33.8142 21.8218 34.7367 21.89C34.8051 22.8135 34.732 24.2618 33.9734 25.0204Z" fill="#0070FF"/>
</g>
</g>
</svg>
