<svg width="34" height="45" viewBox="0 0 34 45" fill="none" xmlns="http://www.w3.org/2000/svg">
<g id="Group">
<g id="Group_2">
<path id="Vector" d="M5.68933 9.23292H11.3786C11.3786 6.09136 8.83142 3.54456 5.68933 3.54456C2.54725 3.54456 0 6.09127 0 9.23292C0 12.3746 2.54716 14.9213 5.68925 14.9213L5.68933 9.23292Z" fill="#308AFF"/>
<g id="Group_3">
<path id="Vector_2" d="M18.4782 37.0175C18.4782 34.4554 19.8349 32.2101 21.8691 30.9606V18.9938H9.40314V40.4078H19.3381C18.7898 39.4003 18.4782 38.2453 18.4782 37.0175Z" fill="#0070FF" fill-opacity="0.8"/>
</g>
</g>
<g id="Group_4">
<path id="Vector_3" d="M26.4618 29.0831V9.23291C26.4618 8.74749 26.0683 8.35401 25.5829 8.35401H16.5151V3.73887L18.5215 1.45969C18.8423 1.0953 18.8069 0.540005 18.4426 0.219204C18.0784 -0.101509 17.5229 -0.0661767 17.2022 0.29813L14.9766 2.8263C14.8353 2.98679 14.7574 3.19325 14.7574 3.407V8.35401H5.68933C5.20391 8.35401 4.81042 8.74749 4.81042 9.23291V44.1211C4.81042 44.6065 5.20391 45 5.68933 45H25.5829C29.9852 45 33.5667 41.4191 33.5667 37.0175C33.5667 32.9128 30.4521 29.5219 26.4618 29.0831ZM6.56824 43.2422V10.1118H14.7573V31.7493C14.7573 32.2347 15.1508 32.6282 15.6362 32.6282C16.1216 32.6282 16.5151 32.2347 16.5151 31.7493V10.1118H24.704V29.0831C20.7138 29.5219 17.5993 32.9129 17.5993 37.0175C17.5993 39.5316 18.7677 41.7779 20.5902 43.2422H6.56824ZM25.5829 43.2422C22.15 43.2422 19.3571 40.4498 19.3571 37.0175C19.3571 33.5852 22.15 30.7928 25.5829 30.7928C29.0159 30.7928 31.8088 33.5852 31.8088 37.0175C31.8088 40.4498 29.0159 43.2422 25.5829 43.2422Z" fill="#0070FF"/>
<path id="Vector_4" d="M25.5829 32.3787C25.0976 32.3787 24.704 32.7722 24.704 33.2576V33.9838C24.704 34.4692 25.0976 34.8627 25.5829 34.8627C26.0683 34.8627 26.4619 34.4692 26.4619 33.9838V33.2576C26.4619 32.7722 26.0683 32.3787 25.5829 32.3787Z" fill="#0070FF"/>
<path id="Vector_5" d="M25.5829 39.1723C25.0976 39.1723 24.704 39.5658 24.704 40.0512V40.7774C24.704 41.2628 25.0976 41.6563 25.5829 41.6563C26.0683 41.6563 26.4619 41.2628 26.4619 40.7774V40.0512C26.4619 39.5658 26.0683 39.1723 25.5829 39.1723Z" fill="#0070FF"/>
<path id="Vector_6" d="M29.3434 36.1386H28.6172C28.1319 36.1386 27.7383 36.5321 27.7383 37.0175C27.7383 37.5029 28.1319 37.8964 28.6172 37.8964H29.3434C29.8288 37.8964 30.2223 37.5029 30.2223 37.0175C30.2223 36.5321 29.8288 36.1386 29.3434 36.1386Z" fill="#0070FF"/>
<path id="Vector_7" d="M22.5487 36.1386H21.8224C21.3371 36.1386 20.9435 36.5321 20.9435 37.0175C20.9435 37.5029 21.3371 37.8964 21.8224 37.8964H22.5487C23.034 37.8964 23.4276 37.5029 23.4276 37.0175C23.4276 36.5321 23.0341 36.1386 22.5487 36.1386Z" fill="#0070FF"/>
</g>
</g>
</svg>
