<svg width="39" height="39" viewBox="0 0 39 39" fill="none" xmlns="http://www.w3.org/2000/svg">
<g id="Group">
<g id="Group_2">
<g id="Group_3">
<path id="Vector" d="M10.1298 22.7665C9.70906 22.7665 9.36804 23.1076 9.36804 23.5282V26.224C9.36804 26.6446 9.70906 26.9857 10.1298 26.9857C10.5505 26.9857 10.8915 26.6446 10.8915 26.224V23.5282C10.8915 23.1075 10.5505 22.7665 10.1298 22.7665Z" fill="#00000C"/>
<path id="Vector_2" d="M9.27779 25.0903C8.43526 24.8256 7.5282 24.8519 6.71057 25.1906C5.63442 25.6363 4.50159 26.6893 4.50159 29.1473C4.50159 33.8293 8.82236 34.9232 10.1291 33.8075H10.1302C11.437 34.9232 15.7577 33.8293 15.7577 29.1473C15.7577 26.6893 14.6249 25.6363 13.5487 25.1906C12.7311 24.8519 11.8241 24.8256 10.9815 25.0903C10.4317 25.3007 9.82768 25.3007 9.27779 25.0903Z" fill="#0070FF"/>
</g>
<g id="Group_4">
<g id="Group_5">
<g id="Group_6">
<path id="Vector_3" d="M31.1049 23.6799H26.6266C24.5569 23.6799 22.8792 25.3579 22.8792 27.4278V30.3104C22.8792 32.3803 24.5569 34.0583 26.6266 34.0583H27.4015C28.9932 34.0583 30.2837 32.7677 30.2837 31.1757H31.1049C33.1745 31.1757 34.8523 29.4977 34.8523 27.4278C34.8523 25.3579 33.1745 23.6799 31.1049 23.6799Z" fill="#308AFF"/>
</g>
</g>
<g id="Group_7">
<path id="Vector_4" d="M30.9973 28.3047C30.6788 28.3047 30.3875 28.0985 30.2802 27.7992C30.1727 27.4996 30.2682 27.1563 30.5139 26.9543C30.7631 26.7493 31.1251 26.7255 31.3992 26.8958C31.6727 27.0658 31.8124 27.4025 31.7384 27.7158C31.6581 28.0561 31.3478 28.3047 30.9973 28.3047Z" fill="#00000C"/>
</g>
</g>
</g>
<g id="Group_8">
<path id="Vector_5" d="M27.493 14.7339H31.3493C33.7052 14.7339 35.622 12.8172 35.622 10.4612V8.13646C35.622 7.71584 35.2809 7.37474 34.8602 7.37474H32.5362C31.7663 7.37474 31.0433 7.57941 30.4188 7.93719C29.4315 6.451 27.7495 5.5278 25.931 5.5278H22.8711C22.4504 5.5278 22.1094 5.8689 22.1094 6.28952V9.3498C22.1094 12.3186 24.5245 14.7339 27.493 14.7339ZM34.0985 8.89818V10.4612C34.0985 11.9771 32.8652 13.2105 31.3493 13.2105H29.787V11.6475C29.787 10.1316 31.0203 8.89818 32.5362 8.89818H34.0985ZM23.6328 7.05124H25.931C27.2946 7.05124 28.5513 7.77525 29.2432 8.92781C28.6314 9.66713 28.2635 10.6152 28.2635 11.6475V13.2105H27.4929C25.3644 13.2105 23.6327 11.4787 23.6327 9.3498L23.6328 7.05124Z" fill="#0070FF"/>
<path id="Vector_6" d="M32.3196 0H6.67586C2.99477 0 0 2.99477 0 6.67593V32.3241C0 36.0052 2.99477 39 6.67586 39H32.3196C36.0007 39 38.9954 36.0052 38.9954 32.3241V6.67593C38.9954 2.99477 36.0007 0 32.3196 0ZM37.472 6.67593V18.7383H20.2594V1.52344H32.3196C35.1606 1.52344 37.472 3.83487 37.472 6.67593ZM1.52344 6.67593C1.52344 3.83487 3.8348 1.52344 6.67586 1.52344H18.736V18.7383H1.52344V6.67593ZM1.52344 32.3241V20.2617H18.736V37.4766H6.67586C3.8348 37.4766 1.52344 35.1651 1.52344 32.3241ZM37.472 32.3241C37.472 35.1651 35.1606 37.4766 32.3196 37.4766H20.2594V20.2617H37.472V32.3241Z" fill="#0070FF"/>
<path id="Vector_7" d="M16.7795 6.78782C16.7371 5.52619 15.6597 4.49969 14.3779 4.49969H5.88155C4.59966 4.49969 3.52236 5.52619 3.48001 6.78782C3.45015 7.6756 3.91152 8.48249 4.64871 8.91355V13.3042C4.64871 14.6594 5.75115 15.762 7.10624 15.762H13.1533C14.5084 15.762 15.6108 14.6594 15.6108 13.3042V8.91363C16.348 8.48249 16.8093 7.67568 16.7795 6.78782ZM14.6423 7.68299C14.314 7.77554 14.0873 8.07497 14.0873 8.41607V13.3042C14.0873 13.8195 13.6683 14.2386 13.1532 14.2386H7.10617C6.59109 14.2386 6.17207 13.8195 6.17207 13.3042V8.41607C6.17207 8.07497 5.94538 7.77554 5.61708 7.68299C5.24209 7.57719 4.98935 7.23015 5.00245 6.83901C5.01761 6.38914 5.41188 6.02313 5.88148 6.02313H14.3778C14.8474 6.02313 15.2417 6.38914 15.2569 6.83893C15.2701 7.23015 15.0174 7.57727 14.6423 7.68299Z" fill="#0070FF"/>
</g>
</g>
</svg>
