<svg width="36" height="44" viewBox="0 0 36 44" fill="none" xmlns="http://www.w3.org/2000/svg">
<path d="M17.9999 43.0945C17.5351 43.0945 17.1583 42.7177 17.1583 42.2529V24.2211C17.1583 23.7562 17.5351 23.3794 17.9999 23.3794C18.4648 23.3794 18.8416 23.7562 18.8416 24.2211V42.2529C18.8416 42.7177 18.4648 43.0945 17.9999 43.0945Z" fill="#0070FF"/>
<path d="M29.0266 14.2026L27.7856 14.7882C24.6875 16.25 21.3436 16.981 17.9999 16.981C14.6561 16.981 11.3123 16.25 8.21417 14.7882L6.97311 14.2026C5.02124 16.9578 4.02283 20.1931 4.02283 23.45C4.02283 23.5367 4.02384 23.6224 4.02493 23.7091C10.6879 23.7091 14.4407 26.0303 16.343 27.8182C17.2872 28.7056 18.7523 28.7194 19.7068 27.8432C21.6577 26.0521 25.4555 23.7091 31.9747 23.7091C31.9757 23.6224 31.9768 23.5367 31.9768 23.45C31.9769 20.193 30.9785 16.9578 29.0266 14.2026Z" fill="#A5C9FE"/>
<path d="M35.1583 7.21348H32.5706L32.83 6.98117C33.1764 6.67109 33.2058 6.13897 32.8957 5.79261C32.5856 5.44625 32.0534 5.41688 31.7071 5.72696L29.8073 7.42802C29.629 7.58769 29.527 7.81571 29.527 8.05509C29.527 8.29447 29.629 8.52248 29.8073 8.68215L31.7071 10.3832C31.8678 10.5271 32.0684 10.5979 32.2683 10.5979C32.4993 10.5979 32.7294 10.5032 32.8957 10.3176C33.2058 9.97129 33.1764 9.43909 32.83 9.12901L32.5706 8.8967H35.1583C35.6232 8.8967 36 8.51987 36 8.055C36 7.59013 35.6232 7.21348 35.1583 7.21348Z" fill="#0070FF"/>
<path d="M4.29282 10.3834L6.19261 8.68237C6.37097 8.5227 6.47289 8.29468 6.47289 8.0553C6.47289 7.81592 6.37097 7.58791 6.19261 7.42824L4.29282 5.72717C3.94646 5.41709 3.41434 5.44655 3.10426 5.79282C2.79418 6.1391 2.82355 6.6713 3.16991 6.98138L3.42932 7.21369H0.841696C0.376827 7.21369 0 7.59052 0 8.05539C0 8.52026 0.376827 8.89708 0.841696 8.89708H3.42941L3.17 9.12939C2.82364 9.43947 2.79426 9.97159 3.10434 10.3179C3.27058 10.5036 3.50061 10.5982 3.73174 10.5982C3.93156 10.598 4.13222 10.5273 4.29282 10.3834Z" fill="#0070FF"/>
<path d="M29.6957 13.6902C29.6344 13.604 29.574 13.5171 29.5145 13.4296C27.1496 9.95364 26.5357 5.44709 27.8723 1.37459L27.961 1.10449C28.1059 0.662776 27.8653 0.187223 27.4237 0.0422847C26.982 -0.102569 26.5064 0.137816 26.3615 0.579533L26.2729 0.84963C25.5367 3.09247 25.3121 5.50441 25.6232 7.82468C25.9375 10.1694 26.8018 12.4348 28.1226 14.3762C28.1885 14.4732 28.2556 14.5696 28.3238 14.6656C31.4245 19.0261 31.9948 24.7608 29.8122 29.6317L24.3106 41.9088C24.1205 42.333 24.3103 42.831 24.7345 43.021C24.8463 43.0711 24.9632 43.0949 25.0782 43.0949C25.3997 43.0949 25.7067 42.9095 25.8467 42.5972L31.3481 30.32C32.5457 27.6477 33.0258 24.698 32.7367 21.79C32.4477 18.8823 31.3961 16.0814 29.6957 13.6902Z" fill="#0070FF"/>
<path d="M6.18777 29.6315C4.00511 24.7606 4.57535 19.026 7.67629 14.6653C7.74438 14.5695 7.81138 14.4732 7.8772 14.3764C9.19806 12.4349 10.0624 10.1694 10.3767 7.82471C10.6877 5.50443 10.463 3.0925 9.72697 0.849572L9.63834 0.579475C9.49332 0.137758 9.01768 -0.102796 8.57614 0.0422269C8.1345 0.187165 7.89395 0.662802 8.03889 1.10443L8.12752 1.37445C9.46411 5.44695 8.85019 9.9535 6.48522 13.4297C6.4258 13.517 6.36545 13.6037 6.30417 13.6899C4.60363 16.0813 3.55203 18.8822 3.26299 21.7899C2.97387 24.6979 3.45406 27.6476 4.65161 30.3199L10.153 42.597C10.293 42.9095 10.6001 43.0947 10.9216 43.0947C11.0366 43.0947 11.1535 43.071 11.2652 43.0209C11.6894 42.8309 11.8792 42.3328 11.6891 41.9086L6.18777 29.6315Z" fill="#0070FF"/>
<path d="M18 10.2051C17.5351 10.2051 17.1583 10.5819 17.1583 11.0468V12.101C17.1583 12.5659 17.5351 12.9427 18 12.9427C18.4648 12.9427 18.8417 12.5659 18.8417 12.101V11.0468C18.8417 10.5819 18.4648 10.2051 18 10.2051Z" fill="#0070FF"/>
</svg>
